<svg xmlns="http://www.w3.org/2000/svg" viewBox="0 0 496 512">
  <path fill="#10b981" d="M248 0C111 0 0 111 0 248S111 496 248 496 496 385 496 248 385 0 248 0zM365 292.1l-60.6 44 23.2 71.3c-23.7 17.2-51.5 27.8-81 30.6v-75.1l-50.6-36.8-50.6 36.8v75.1c-29.5-2.8-57.3-13.4-81-30.6l23.2-71.3-60.6-44C36.9 265 32 256.7 32 248c0-10.4 1.7-20.4 4.8-29.9l71.3-23.2 22.1-70.1c18.5-22.1 42.1-40 69.2-51.6l44 60.6h108.6l44-60.6c27 11.6 50.7 29.4 69.2 51.6l22.1 70.1 71.3 23.2c3.1 9.5 4.8 19.5 4.8 29.9 0 8.7-4.9 17-10.4 24.1zM161.4 179.3l86.6 62.9 86.6-62.9-33.1-102c-33.3-8.8-68.5-8.8-106.9 0l-33.2 102zm212.7 54.5l-63.4-19-25.1-77.4c29.1 16 53.6 38.6 71.6 65.5l16.9 30.9zM157.9 137.4l-25.1 77.4-63.4 19l16.9-30.9c18-26.9 42.5-49.5 71.6-65.5zm19.6 142.1l-50.6 36.8-23.2 71.3c26.1 19.9 57.6 32.2 91.5 35.1v-75.1l-17.7-68.1zm141 0l-17.7 68.1v75.1c33.9-2.9 65.4-15.2 91.5-35.1l-23.2-71.3-50.6-36.8z"/>
</svg>
